<svg xmlns="http://www.w3.org/2000/svg" viewBox="0 0 100 100">
  <defs>
    <linearGradient id="bd-grad" x1="0%" y1="0%" x2="100%" y2="100%">
      <stop offset="0%" style="stop-color:#ff6b35"/>
      <stop offset="100%" style="stop-color:#ff4757"/>
    </linearGradient>
  </defs>
  <rect width="100" height="100" fill="url(#bd-grad)" rx="16"/>
  <g fill="none" stroke="white" stroke-width="2.5" stroke-linecap="round" stroke-linejoin="round">
    <!-- brain / thought bubble -->
    <path d="M50 28c-8 0-14 6-14 14 0 4 2 8 5 10-2 2-3 5-3 8 0 6 5 11 11 11s11-5 11-11c0-3-1-6-3-8 3-2 5-6 5-10 0-8-6-14-14-14z"/>
    <path d="M38 42c-1 2-2 4-2 6 0 4 3 7 7 7"/>
    <path d="M62 42c1 2 2 4 2 6 0 4-3 7-7 7"/>
    <!-- list lines -->
    <path d="M28 68h44M28 76h36M28 84h30"/>
  </g>
</svg>
